<svg xmlns="http://www.w3.org/2000/svg" width="48" height="37" viewBox="0 0 48 37"><g fill="none"><path fill="#363946" d="M8.79 36.638v-2.413c0-.925-.563-1.528-1.526-1.528-.481 0-1.003.16-1.364.683-.281-.442-.683-.683-1.285-.683-.401 0-.802.12-1.123.563v-.483h-.843v3.861h.843v-2.131c0-.684.36-1.006.923-1.006.562 0 .843.362.843 1.006v2.131H6.1v-2.131c0-.684.402-1.006.923-1.006.562 0 .843.362.843 1.006v2.131h.923zm12.48-3.86h-1.364V31.61h-.842v1.166H18.3v.764h.763v1.77c0 .885.36 1.407 1.324 1.407.361 0 .763-.12 1.043-.281l-.24-.724c-.241.16-.522.201-.723.201-.401 0-.562-.241-.562-.643v-1.73h1.365v-.764zm7.145-.081c-.482 0-.803.241-1.004.563v-.483h-.842v3.861h.842v-2.172c0-.643.281-1.005.803-1.005.16 0 .361.04.522.08l.24-.804c-.16-.04-.4-.04-.561-.04zm-10.796.402c-.402-.282-.963-.402-1.565-.402-.964 0-1.606.482-1.606 1.246 0 .644.482 1.006 1.325 1.127l.4.04c.442.08.683.2.683.402 0 .281-.32.483-.883.483a2.212 2.212 0 0 1-1.284-.403l-.401.644c.441.322 1.043.482 1.645.482 1.124 0 1.766-.522 1.766-1.246 0-.684-.522-1.046-1.324-1.167l-.402-.04c-.361-.04-.642-.12-.642-.362 0-.281.281-.442.723-.442.481 0 .963.201 1.204.322l.36-.684zm22.394-.402c-.481 0-.802.241-1.003.563v-.483h-.843v3.861h.843v-2.172c0-.643.281-1.005.803-1.005.16 0 .36.04.521.08l.241-.804c-.16-.04-.401-.04-.562-.04zm-10.755 2.01c0 1.167.802 2.011 2.046 2.011.562 0 .964-.12 1.365-.442l-.401-.684c-.322.242-.643.362-1.004.362-.682 0-1.164-.482-1.164-1.246 0-.724.482-1.207 1.164-1.247.361 0 .682.12 1.004.362l.4-.684c-.4-.322-.802-.442-1.364-.442-1.244 0-2.046.844-2.046 2.01zm7.785 0v-1.93h-.842v.483c-.281-.362-.683-.563-1.204-.563-1.084 0-1.927.844-1.927 2.01 0 1.167.843 2.011 1.927 2.011.562 0 .963-.2 1.204-.563v.483h.842v-1.93zm-3.09 0c0-.683.442-1.246 1.164-1.246.682 0 1.164.523 1.164 1.247 0 .683-.482 1.246-1.164 1.246-.722-.04-1.164-.563-1.164-1.246zm-10.073-2.01c-1.124 0-1.927.804-1.927 2.01 0 1.207.803 2.011 1.967 2.011.562 0 1.123-.16 1.565-.522l-.401-.604c-.321.242-.723.403-1.124.403-.522 0-1.044-.242-1.164-.925h2.85v-.322c.04-1.247-.683-2.051-1.766-2.051zm0 .724c.521 0 .883.321.963.925h-2.007c.08-.523.442-.925 1.044-.925zm20.91 1.287v-3.46h-.844v2.012c-.28-.362-.682-.563-1.204-.563-1.083 0-1.926.844-1.926 2.01 0 1.167.843 2.011 1.926 2.011.562 0 .964-.2 1.204-.563v.483h.843v-1.93zm-3.091 0c0-.684.441-1.247 1.164-1.247.682 0 1.164.523 1.164 1.247 0 .683-.482 1.246-1.164 1.246-.723-.04-1.164-.563-1.164-1.246zm-28.174 0v-1.93h-.843v.482c-.28-.362-.682-.563-1.204-.563-1.083 0-1.926.844-1.926 2.01 0 1.167.843 2.011 1.926 2.011.562 0 .963-.2 1.204-.563v.483h.843v-1.93zm-3.13 0c0-.684.441-1.247 1.164-1.247.682 0 1.163.523 1.163 1.247 0 .683-.481 1.246-1.163 1.246-.723-.04-1.164-.563-1.164-1.246z"/><path fill="#FF5F00" d="M17.338 3.459H29.98v22.763H17.338z"/><path fill="#FC2A1C" d="M18.14 14.84c0-4.625 2.168-8.727 5.499-11.381a14.34 14.34 0 0 0-8.91-3.097C6.742.362.281 6.837.281 14.84s6.461 14.478 14.448 14.478a14.34 14.34 0 0 0 8.91-3.096c-3.331-2.614-5.499-6.757-5.499-11.382z"/><path fill="#F79E1B" d="M47.037 14.84c0 8.003-6.462 14.478-14.448 14.478a14.34 14.34 0 0 1-8.91-3.096c3.371-2.655 5.498-6.757 5.498-11.382S27.01 6.113 23.68 3.46A14.34 14.34 0 0 1 32.59.363c7.986 0 14.448 6.515 14.448 14.478z"/></g></svg>