<svg xmlns="http://www.w3.org/2000/svg" width="36" height="35" viewBox="0 0 36 35"><g fill="none"><path fill="#62AB36" d="M35.376 17.5c0 5.354-.027 10.709.026 16.037 0 .967-.288 1.306-1.254 1.306-4.702-.026-9.403-.026-14.105 0-1.018 0-1.306-.34-1.358-1.358-.13-2.507-.104-5.093-.653-7.496-1.41-5.955-5.72-8.62-11.57-9.142-1.542-.13-3.135-.052-4.702-.026-.784.026-1.071-.287-1.071-1.071.026-4.884.026-9.743 0-14.627C.663.261 1.029 0 1.839 0c10.734.026 21.495.026 32.23 0 1.098 0 1.28.522 1.28 1.437-.026 5.354 0 10.709.027 16.063-.027 0-.027 0 0 0zM18.136 6.896H9.518c-2.037 0-1.959 0-1.985 1.985-.026 1.723 1.332 1.358 2.194 1.515 4.336.861 8.045 2.768 10.944 6.111 2.482 2.874 3.918 6.243 4.414 9.978.21 1.437.392 1.515 2.299 1.489.94-.026 1.201-.444 1.201-1.28-.026-6.164-.026-12.354 0-18.519 0-.966-.365-1.28-1.305-1.28-3.056.027-6.112 0-9.142 0z"/><path fill="#0E1014" d="M.48 34.896V21.34h13.608v13.556H.48z"/></g></svg>