<svg xmlns="http://www.w3.org/2000/svg" width="77" height="25" viewBox="0 0 77 25"><g fill="none"><path fill="#00579F" d="M33.081 24.543h-6.155L30.776.735h6.155zM55.397 1.318C54.183.836 52.257.304 49.876.304c-6.08 0-10.36 3.242-10.387 7.876-.05 3.42 3.065 5.319 5.396 6.459 2.381 1.165 3.19 1.926 3.19 2.964-.024 1.595-1.924 2.33-3.696 2.33-2.458 0-3.775-.379-5.776-1.266l-.81-.38-.862 5.344c1.444.657 4.104 1.241 6.866 1.267 6.459 0 10.664-3.192 10.714-8.13.024-2.711-1.62-4.788-5.168-6.485-2.153-1.089-3.471-1.823-3.471-2.938.025-1.013 1.115-2.051 3.545-2.051 2.002-.05 3.472.43 4.586.912l.557.252.837-5.14zm8.182 14.79a7515.71 7515.71 0 0 0 2.457-6.66c-.025.05.506-1.393.81-2.28l.43 2.052s1.166 5.698 1.42 6.889h-5.117zM71.177.736h-4.761c-1.469 0-2.584.43-3.218 1.976l-9.144 21.832h6.46l1.292-3.572h7.903c.177.836.735 3.572.735 3.572h5.7L71.176.735zm-49.393 0L15.755 16.97l-.658-3.293c-1.115-3.799-4.61-7.926-8.511-9.979l5.522 20.82h6.51L28.292.735h-6.509z"/><path fill="#FAA61A" d="M10.157.735H.253l-.101.482c7.726 1.975 12.842 6.737 14.945 12.461L12.944 2.737C12.589 1.217 11.5.786 10.157.735z"/></g></svg>